<svg xmlns="http://www.w3.org/2000/svg" xmlns:xlink="http://www.w3.org/1999/xlink" xmlns:lucid="lucid" width="1760" height="1360"><g transform="translate(0 0)" lucid:page-tab-id="18_45"><path d="M0 0h1760v1360H0z" fill="#fff"/><path d="M865 805c0-2.76 2.24-5 5-5h190c2.76 0 5 2.24 5 5v126c0 2.76-2.24 5-5 5H870c-2.76 0-5-2.24-5-5z" fill="#fff"/><path d="M865 805c0-2.76 2.24-5 5-5h190c2.76 0 5 2.24 5 5v126c0 2.76-2.24 5-5 5H870c-2.76 0-5-2.24-5-5zM865 840h200" stroke="#666" stroke-width="2" fill="none"/><use xlink:href="#a" transform="matrix(1,0,0,1,875,800) translate(56.574999999999996 23.6)"/><use xlink:href="#b" transform="matrix(1,0,0,1,870,842.5) translate(0 17.1)"/><use xlink:href="#c" transform="matrix(1,0,0,1,870,874.5) translate(0 17.1)"/><use xlink:href="#d" transform="matrix(1,0,0,1,870,906.5) translate(0 17.1)"/><path d="M1445 805c0-2.76 2.24-5 5-5h190c2.76 0 5 2.24 5 5v286c0 2.76-2.24 5-5 5h-190c-2.76 0-5-2.24-5-5z" fill="#fff"/><path d="M1445 805c0-2.76 2.24-5 5-5h190c2.76 0 5 2.24 5 5v286c0 2.76-2.24 5-5 5h-190c-2.76 0-5-2.24-5-5zM1445 840h200" stroke="#666" stroke-width="2" fill="none"/><use xlink:href="#e" transform="matrix(1,0,0,1,1455,800) translate(3.1750000000000114 23.6)"/><use xlink:href="#b" transform="matrix(1,0,0,1,1450,842.5) translate(0 17.1)"/><use xlink:href="#f" transform="matrix(1,0,0,1,1450,874.5) translate(0 17.1)"/><use xlink:href="#g" transform="matrix(1,0,0,1,1450,906.5) translate(0 17.1)"/><use xlink:href="#h" transform="matrix(1,0,0,1,1450,938.5) translate(0 17.1)"/><use xlink:href="#i" transform="matrix(1,0,0,1,1450,970.5) translate(0 17.1)"/><use xlink:href="#j" transform="matrix(1,0,0,1,1450,1002.5) translate(0 17.1)"/><use xlink:href="#k" transform="matrix(1,0,0,1,1450,1034.5) translate(0 17.1)"/><use xlink:href="#l" transform="matrix(1,0,0,1,1450,1066.5) translate(0 17.1)"/><path d="M865 225c0-2.76 2.24-5 5-5h190c2.76 0 5 2.24 5 5v222c0 2.76-2.24 5-5 5H870c-2.76 0-5-2.24-5-5z" fill="#ccc"/><path d="M865 225c0-2.76 2.24-5 5-5h190c2.76 0 5 2.24 5 5v222c0 2.76-2.24 5-5 5H870c-2.76 0-5-2.24-5-5zM865 260h200" stroke="#666" stroke-width="2" fill="none"/><use xlink:href="#m" transform="matrix(1,0,0,1,875,220) translate(38.17499999999999 23.6)"/><use xlink:href="#b" transform="matrix(1,0,0,1,870,262.5) translate(0 17.1)"/><use xlink:href="#n" transform="matrix(1,0,0,1,870,294.5) translate(0 17.1)"/><use xlink:href="#o" transform="matrix(1,0,0,1,870,326.5) translate(0 17.1)"/><use xlink:href="#p" transform="matrix(1,0,0,1,870,358.5) translate(0 17.1)"/><use xlink:href="#q" transform="matrix(1,0,0,1,870,390.5) translate(0 17.1)"/><use xlink:href="#r" transform="matrix(1,0,0,1,870,422.5) translate(0 17.1)"/><path d="M1445 225c0-2.76 2.24-5 5-5h190c2.76 0 5 2.24 5 5v126c0 2.76-2.24 5-5 5h-190c-2.76 0-5-2.24-5-5z" fill="#a3d977"/><path d="M1445 225c0-2.76 2.24-5 5-5h190c2.76 0 5 2.24 5 5v126c0 2.76-2.24 5-5 5h-190c-2.76 0-5-2.24-5-5zM1445 260h200" stroke="#666" stroke-width="2" fill="none"/><use xlink:href="#s" transform="matrix(1,0,0,1,1455,220) translate(17.700000000000003 23.6)"/><use xlink:href="#b" transform="matrix(1,0,0,1,1450,262.5) translate(0 17.1)"/><use xlink:href="#t" transform="matrix(1,0,0,1,1450,294.5) translate(0 17.1)"/><use xlink:href="#u" transform="matrix(1,0,0,1,1450,326.5) translate(0 17.1)"/><path d="M485 545c0-2.76 2.24-5 5-5h190c2.76 0 5 2.24 5 5v286c0 2.76-2.24 5-5 5H490c-2.76 0-5-2.24-5-5z" fill="#83bbe5"/><path d="M485 545c0-2.76 2.24-5 5-5h190c2.76 0 5 2.24 5 5v286c0 2.76-2.24 5-5 5H490c-2.76 0-5-2.24-5-5zM485 580h200" stroke="#666" stroke-width="2" fill="none"/><use xlink:href="#v" transform="matrix(1,0,0,1,495,540) translate(7.174999999999997 23.6)"/><use xlink:href="#b" transform="matrix(1,0,0,1,490,582.5) translate(0 17.1)"/><use xlink:href="#w" transform="matrix(1,0,0,1,490,614.5) translate(0 17.1)"/><use xlink:href="#x" transform="matrix(1,0,0,1,490,646.5) translate(0 17.1)"/><use xlink:href="#y" transform="matrix(1,0,0,1,490,678.5) translate(0 17.1)"/><use xlink:href="#z" transform="matrix(1,0,0,1,490,710.5) translate(0 17.1)"/><use xlink:href="#A" transform="matrix(1,0,0,1,490,742.5) translate(0 17.1)"/><use xlink:href="#B" transform="matrix(1,0,0,1,490,774.5) translate(0 17.1)"/><use xlink:href="#C" transform="matrix(1,0,0,1,490,806.5) translate(0 17.1)"/><path d="M845 1065.13c0-2.77 2.24-5 5-5h235c2.76 0 5 2.23 5 5v190c0 2.76-2.24 5-5 5H850c-2.76 0-5-2.24-5-5z" fill="#ff8f80"/><path d="M845 1065.13c0-2.77 2.24-5 5-5h235c2.76 0 5 2.23 5 5v190c0 2.76-2.24 5-5 5H850c-2.76 0-5-2.24-5-5zM845 1100.13h245" stroke="#666" stroke-width="2" fill="none"/><use xlink:href="#D" transform="matrix(1,0,0,1,855,1060.125) translate(-6.249999999999986 23.6)"/><use xlink:href="#b" transform="matrix(1,0,0,1,850,1102.625) translate(0 17.1)"/><use xlink:href="#E" transform="matrix(1,0,0,1,850,1134.625) translate(0 17.1)"/><use xlink:href="#F" transform="matrix(1,0,0,1,850,1166.625) translate(0 17.1)"/><use xlink:href="#G" transform="matrix(1,0,0,1,850,1198.625) translate(0 17.1)"/><use xlink:href="#H" transform="matrix(1,0,0,1,850,1230.625) translate(0 17.1)"/><path d="M215 925.5c0-2.76 2.24-5 5-5h235c2.76 0 5 2.24 5 5v350c0 2.76-2.24 5-5 5H220c-2.76 0-5-2.24-5-5z" fill="#fff"/><path d="M215 925.5c0-2.76 2.24-5 5-5h235c2.76 0 5 2.24 5 5v350c0 2.76-2.24 5-5 5H220c-2.76 0-5-2.24-5-5zM215 960.5h245" stroke="#666" stroke-width="2" fill="none"/><use xlink:href="#I" transform="matrix(1,0,0,1,225,920.5) translate(-5.299999999999983 23.6)"/><use xlink:href="#b" transform="matrix(1,0,0,1,220,963) translate(0 17.1)"/><use xlink:href="#n" transform="matrix(1,0,0,1,220,995) translate(0 17.1)"/><use xlink:href="#x" transform="matrix(1,0,0,1,220,1027) translate(0 17.1)"/><use xlink:href="#y" transform="matrix(1,0,0,1,220,1059) translate(0 17.1)"/><use xlink:href="#z" transform="matrix(1,0,0,1,220,1091) translate(0 17.1)"/><use xlink:href="#A" transform="matrix(1,0,0,1,220,1123) translate(0 17.1)"/><use xlink:href="#B" transform="matrix(1,0,0,1,220,1155) translate(0 17.1)"/><use xlink:href="#C" transform="matrix(1,0,0,1,220,1187) translate(0 17.1)"/><use xlink:href="#w" transform="matrix(1,0,0,1,220,1219) translate(0 17.1)"/><use xlink:href="#H" transform="matrix(1,0,0,1,220,1251) translate(0 17.1)"/><path d="M155 225c0-2.76 2.24-5 5-5h250c2.76 0 5 2.24 5 5v222c0 2.76-2.24 5-5 5H160c-2.76 0-5-2.24-5-5z" fill="#fff"/><path d="M155 225c0-2.76 2.24-5 5-5h250c2.76 0 5 2.24 5 5v222c0 2.76-2.24 5-5 5H160c-2.76 0-5-2.24-5-5zM155 260h260" stroke="#666" stroke-width="2" fill="none"/><use xlink:href="#J" transform="matrix(1,0,0,1,165,220) translate(35.67500000000001 23.6)"/><use xlink:href="#b" transform="matrix(1,0,0,1,160,262.5) translate(0 17.1)"/><use xlink:href="#q" transform="matrix(1,0,0,1,160,294.5) translate(0 17.1)"/><use xlink:href="#r" transform="matrix(1,0,0,1,160,326.5) translate(0 17.1)"/><use xlink:href="#o" transform="matrix(1,0,0,1,160,358.5) translate(0 17.1)"/><use xlink:href="#K" transform="matrix(1,0,0,1,160,390.5) translate(0 17.1)"/><use xlink:href="#L" transform="matrix(1,0,0,1,160,422.5) translate(0 17.1)"/><path d="M865 545c0-2.76 2.24-5 5-5h190c2.76 0 5 2.24 5 5v126c0 2.76-2.24 5-5 5H870c-2.76 0-5-2.24-5-5z" fill="#fff"/><path d="M865 545c0-2.76 2.24-5 5-5h190c2.76 0 5 2.24 5 5v126c0 2.76-2.24 5-5 5H870c-2.76 0-5-2.24-5-5zM865 580h200" stroke="#666" stroke-width="2" fill="none"/><use xlink:href="#M" transform="matrix(1,0,0,1,875,540) translate(29.67499999999999 23.6)"/><use xlink:href="#b" transform="matrix(1,0,0,1,870,582.5) translate(0 17.1)"/><use xlink:href="#N" transform="matrix(1,0,0,1,870,614.5) translate(0 17.1)"/><use xlink:href="#O" transform="matrix(1,0,0,1,870,646.5) translate(0 17.1)"/><path d="M1445 545c0-2.76 2.24-5 5-5h225c2.76 0 5 2.24 5 5v222c0 2.76-2.24 5-5 5h-225c-2.76 0-5-2.24-5-5z" fill="#fff"/><path d="M1445 545c0-2.76 2.24-5 5-5h225c2.76 0 5 2.24 5 5v222c0 2.76-2.24 5-5 5h-225c-2.76 0-5-2.24-5-5zM1445 580h235" stroke="#666" stroke-width="2" fill="none"/><use xlink:href="#P" transform="matrix(1,0,0,1,1455,540) translate(11.775000000000006 23.6)"/><use xlink:href="#b" transform="matrix(1,0,0,1,1450,582.5) translate(0 17.1)"/><use xlink:href="#Q" transform="matrix(1,0,0,1,1450,614.5) translate(0 17.1)"/><use xlink:href="#f" transform="matrix(1,0,0,1,1450,646.5) translate(0 17.1)"/><use xlink:href="#g" transform="matrix(1,0,0,1,1450,678.5) translate(0 17.1)"/><use xlink:href="#R" transform="matrix(1,0,0,1,1450,710.5) translate(0 17.1)"/><use xlink:href="#S" transform="matrix(1,0,0,1,1450,742.5) translate(0 17.1)"/><path d="M1066 855.88h209c2.76 0 5 2.24 5 5v86.16c0 2.76 2.24 5 5 5h159" stroke="#999" stroke-width="2" fill="none"/><path d="M1088.68 855.88l-21.8 10.9-.88-1.8 18.2-9.1-18.2-9.1.9-1.8z" fill="#999"/><path fill="#fff"/><path d="M1087.45 865.88h-2v-20h2z" fill="#999"/><path fill="#fff"/><path d="M1435 962.04h-2v-20h2z" fill="#999"/><path fill="#fff"/><path d="M1425 962.04h-2v-20h2z" fill="#999"/><path d="M1066 340.04h219c2.76 0 5-2.24 5-5v-54.16c0-2.76 2.24-5 5-5h149" stroke="#999" stroke-width="2" fill="none"/><path d="M1088.68 340.04l-21.8 10.9-.88-1.8 18.2-9.1-18.2-9.1.9-1.8z" fill="#999"/><path fill="#fff"/><path d="M1087.45 350.04h-2v-20h2z" fill="#999"/><path fill="#fff"/><path d="M1435 285.88h-2v-20h2z" fill="#999"/><path fill="#fff"/><path d="M1425 285.88h-2v-20h2z" fill="#999"/><path d="M1066 595.88h219c2.76 0 5 2.24 5 5v54.15c0 2.77 2.24 5 5 5h149" stroke="#999" stroke-width="2" fill="none"/><path fill="#fff"/><path d="M1077 605.88h-2v-20h2z" fill="#999"/><path fill="#fff"/><path d="M1087 605.88h-2v-20h2zM1444 650.93l-18.2 9.1 18.2 9.1-.9 1.8-21.78-10.9 21.8-10.9z" fill="#999"/><path fill="#fff"/><path d="M1424.55 670.03h-2v-20h2z" fill="#999"/><path d="M965 937v59.8c0 .7.56 1.26 1.25 1.26.7 0 1.25.56 1.25 1.25v59.83" stroke="#999" stroke-width="2" fill="none"/><path fill="#fff"/><path d="M975 948h-20v-2h20z" fill="#999"/><path d="M975 967l-.5 3.16-1.43 2.75-2.16 2.17-2.74 1.42-3.16.5-3.16-.5-2.75-1.43-2.17-2.16-1.42-2.74-.5-3.16.5-3.16 1.43-2.75 2.16-2.17 2.74-1.42 3.16-.5 3.16.5 2.75 1.43 2.17 2.16 1.42 2.74.5 3.16z" fill="#fff"/><path d="M968.48 956.55l3.02 1.56 2.4 2.4 1.55 3.02.54 3.32-1 .16 1 .16-.55 3.32-1.56 3.02-2.4 2.4-3.02 1.55-3.48.56-3.48-.55-3.02-1.56-2.4-2.4-1.55-3.02L954 967l.55-3.48 1.56-3.02 2.4-2.4 3.02-1.55L965 956zm-6.32 1.92l-2.47 1.28-1.95 1.94-1.28 2.46L956 967l.47 2.84 1.28 2.47 1.94 1.95 2.46 1.28 2.84.46 2.84-.47 2.47-1.28 1.95-1.94 1.28-2.46.46-2.84-.47-2.84-1.28-2.47-1.94-1.95-2.46-1.28L965 958zM978.4 1058.23l-1.8.9-9.1-18.22-9.1 18.22-1.8-.9 10.9-21.78z" fill="#999"/><path fill="#fff"/><path d="M977.5 1039.68h-20v-2h20z" fill="#999"/><path d="M864 855.88H342.5c-2.76 0-5 2.24-5 5v58.62" stroke="#999" stroke-width="2" fill="none"/><path fill="#fff"/><path d="M855 865.88h-2v-20h2z" fill="#999"/><path d="M844 855.88l-.5 3.16-1.43 2.75-2.16 2.15-2.74 1.42-3.16.5-3.16-.5-2.75-1.42-2.17-2.16-1.42-2.76-.5-3.16.5-3.16 1.43-2.75 2.16-2.16 2.74-1.4 3.16-.52 3.16.5 2.75 1.43 2.17 2.17 1.42 2.75.5 3.16z" fill="#fff"/><path d="M837.48 845.43l3.02 1.56 2.4 2.38 1.55 3.02.54 3.32-1 .16 1 .16-.55 3.32-1.56 3.02-2.4 2.4-3.02 1.55-3.48.56-3.48-.57-3.02-1.56-2.4-2.4-1.55-3-.56-3.5.55-3.47 1.56-3.02 2.4-2.4 3.02-1.55 3.48-.56zm-6.32 1.92l-2.47 1.28-1.95 1.94-1.28 2.47-.46 2.84.47 2.84 1.28 2.47 1.94 1.93 2.46 1.28 2.84.47 2.84-.46 2.47-1.27 1.95-1.94 1.28-2.48.46-2.84-.47-2.84-1.28-2.47-1.94-1.94-2.46-1.28-2.84-.46zM348.4 918.6l-1.8.9-9.1-18.2-9.1 18.2-1.8-.9 10.9-21.78z" fill="#999"/><path fill="#fff"/><path d="M347.5 900.05h-20v-2h20z" fill="#999"/><path d="M285 453v22.2c0 2.75 2.24 5 5 5h290c2.76 0 5 2.23 5 5V539" stroke="#999" stroke-width="2" fill="none"/><path d="M295.9 453.9L285 475.67l-10.9-21.8 1.8-.88 9.1 18.2 9.1-18.2z" fill="#999"/><path fill="#fff"/><path d="M295 474.45h-20v-2h20zM595.9 538.1l-1.8.9-9.1-18.2-9.1 18.2-1.8-.9 10.9-21.78z" fill="#999"/><path fill="#fff"/><path d="M595 519.55h-20v-2h20z" fill="#999"/><path d="M965 453v86" stroke="#999" stroke-width="2" fill="none"/><path d="M975.9 453.9L965 475.67l-10.9-21.8 1.8-.88 9.1 18.2 9.1-18.2z" fill="#999"/><path fill="#fff"/><path d="M975 474.45h-20v-2h20zM975.9 538.1l-1.8.9-9.1-18.2-9.1 18.2-1.8-.9 10.9-21.78z" fill="#999"/><path fill="#fff"/><path d="M975 519.55h-20v-2h20z" fill="#999"/><path d="M864 340.04H416" stroke="#999" stroke-width="2" fill="none"/><path d="M864 330.93l-18.2 9.1 18.2 9.12-.9 1.78-21.78-10.9 21.8-10.88z" fill="#999"/><path fill="#fff"/><path d="M844.55 350.04h-2v-20h2z" fill="#999"/><path fill="#fff"/><path d="M427 350.03h-2v-20h2z" fill="#999"/><path fill="#fff"/><path d="M437 350.03h-2v-20h2z" fill="#999"/><path d="M154 340.03h-35c-2.76 0-5 2.24-5 5v754.5c0 2.76 2.24 5 5 5h95" stroke="#999" stroke-width="2" fill="none"/><path d="M154 330.93l-18.2 9.1 18.2 9.1-.9 1.8-21.78-10.9 21.8-10.9z" fill="#999"/><path fill="#fff"/><path d="M134.55 350.03h-2v-20h2zM214 1095.43l-18.2 9.1 18.2 9.1-.9 1.8-21.78-10.9 21.8-10.9z" fill="#999"/><path fill="#fff"/><path d="M194.55 1114.53h-2v-20h2z" fill="#999"/><path d="M914.57 453v35c0 2.76 2.24 5 5 5H1155c2.76 0 5 2.24 5 5v645.03c0 2.76-2.24 5-5 5h-64" stroke="#999" stroke-width="2" fill="none"/><path d="M925.46 453.9l-10.9 21.78-10.9-21.8 1.8-.88 9.1 18.2 9.1-18.2z" fill="#999"/><path fill="#fff"/><path d="M924.57 474.45h-20v-2h20zM1113.68 1148.03l-21.8 10.9-.88-1.8 18.2-9.1-18.2-9.1.9-1.8z" fill="#999"/><path fill="#fff"/><path d="M1112.45 1158.03h-2v-20h2z" fill="#999"/><path d="M32 37c0-2.76 2.24-5 5-5h838c2.76 0 5 2.24 5 5v38c0 2.76-2.24 5-5 5H37c-2.76 0-5-2.24-5-5z" fill="none"/><use xlink:href="#T" transform="matrix(1,0,0,1,32,32) translate(0 31.11111111111111)"/><use xlink:href="#U" transform="matrix(1,0,0,1,32,32) translate(84.74074074074075 31.11111111111111)"/><use xlink:href="#V" transform="matrix(1,0,0,1,32,32) translate(143.90123456790124 31.11111111111111)"/><path d="M31.33 80H1728" stroke="#999" stroke-width="2" fill="none"/><path d="M1040 37c0-2.76 2.24-5 5-5h678c2.76 0 5 2.24 5 5v38c0 2.76-2.24 5-5 5h-678c-2.76 0-5-2.24-5-5z" fill="none"/><g><use xlink:href="#W" transform="matrix(1,0,0,1,1040,32) translate(371.51851851852166 28.4444444444444)"/><use xlink:href="#X" transform="matrix(1,0,0,1,1040,32) translate(460.34567901234794 28.4444444444444)"/><use xlink:href="#Y" transform="matrix(1,0,0,1,1040,32) translate(526.8888888888905 28.4444444444444)"/><use xlink:href="#Z" transform="matrix(1,0,0,1,1040,32) translate(551.1481481481495 28.4444444444444)"/><use xlink:href="#aa" transform="matrix(1,0,0,1,1040,32) translate(601.580246913581 28.4444444444444)"/><use xlink:href="#ab" transform="matrix(1,0,0,1,1040,32) translate(638.6172839506178 28.4444444444444)"/></g><defs><path fill="#333" d="M238-95c0 69-44 99-111 99C63 4 22-25 22-93v-155h51v151c-1 38 19 59 55 60 90 1 49-130 58-211h52v153" id="ac"/><path fill="#333" d="M137-138c1-29-70-34-71-4 15 46 118 7 119 86 1 83-164 76-172 9l43-7c4 19 20 25 44 25 33 8 57-30 24-41C81-84 22-81 20-136c-2-80 154-74 161-7" id="ad"/><path fill="#333" d="M85 4C-2 5 27-109 22-190h50c7 57-23 150 33 157 60-5 35-97 40-157h50l1 190h-47c-2-12 1-28-3-38-12 25-28 42-61 42" id="ae"/><path fill="#333" d="M132-34C116-15 102 5 68 4 31 3 10-16 10-54c-1-60 55-63 116-61 1-26-3-47-28-47-18 1-26 9-28 27l-52-2c7-38 36-58 82-57s74 22 75 68l1 82c-1 14 12 18 25 15v27c-30 8-71 5-69-32zm-48 3c29 0 43-24 42-57-32 0-66-3-65 30 0 17 8 27 23 27zM66-208v-5l45-51h45v8l-60 48H66" id="af"/><path fill="#333" d="M135-150c-39-12-60 13-60 57V0H25l-1-190h47c2 13-1 29 3 40 6-28 27-53 61-41v41" id="ag"/><path fill="#333" d="M25-224v-37h50v37H25zM25 0v-190h50V0H25" id="ah"/><path fill="#333" d="M110-194c64 0 96 36 96 99 0 64-35 99-97 99-61 0-95-36-95-99 0-62 34-99 96-99zm-1 164c35 0 45-28 45-65 0-40-10-65-43-65-34 0-45 26-45 65 0 36 10 65 43 65" id="ai"/><g id="a"><use transform="matrix(0.05,0,0,0.05,0,0)" xlink:href="#ac"/><use transform="matrix(0.05,0,0,0.05,12.950000000000001,0)" xlink:href="#ad"/><use transform="matrix(0.05,0,0,0.05,22.950000000000003,0)" xlink:href="#ae"/><use transform="matrix(0.05,0,0,0.05,33.900000000000006,0)" xlink:href="#af"/><use transform="matrix(0.05,0,0,0.05,43.900000000000006,0)" xlink:href="#ag"/><use transform="matrix(0.05,0,0,0.05,50.900000000000006,0)" xlink:href="#ah"/><use transform="matrix(0.05,0,0,0.05,55.900000000000006,0)" xlink:href="#ai"/></g><path fill="#333" d="M88-194c31-1 46 15 58 34l-1-101h50l1 261h-48c-2-10 0-23-3-31C134-8 116 4 84 4 32 4 16-41 15-95c0-56 19-97 73-99zm17 164c33 0 40-30 41-66 1-37-9-64-41-64s-38 30-39 65c0 43 13 65 39 65" id="aj"/><g id="b"><use transform="matrix(0.05,0,0,0.05,0,0)" xlink:href="#ah"/><use transform="matrix(0.05,0,0,0.05,5,0)" xlink:href="#aj"/></g><path fill="#333" d="M185-48c-13 30-37 53-82 52C43 2 14-33 14-96s30-98 90-98c62 0 83 45 84 108H66c0 31 8 55 39 56 18 0 30-7 34-22zm-45-69c5-46-57-63-70-21-2 6-4 13-4 21h74" id="ak"/><path fill="#333" d="M135-194c87-1 58 113 63 194h-50c-7-57 23-157-34-157-59 0-34 97-39 157H25l-1-190h47c2 12-1 28 3 38 12-26 28-41 61-42" id="al"/><path fill="#333" d="M133-34C117-15 103 5 69 4 32 3 11-16 11-54c-1-60 55-63 116-61 1-26-3-47-28-47-18 1-26 9-28 27l-52-2c7-38 36-58 82-57s74 22 75 68l1 82c-1 14 12 18 25 15v27c-30 8-71 5-69-32zm-48 3c29 0 43-24 42-57-32 0-66-3-65 30 0 17 8 27 23 27" id="am"/><path fill="#333" d="M220-157c-53 9-28 100-34 157h-49v-107c1-27-5-49-29-50C55-147 81-57 75 0H25l-1-190h47c2 12-1 28 3 38 10-53 101-56 108 0 13-22 24-43 59-42 82 1 51 116 57 194h-49v-107c-1-25-5-48-29-50" id="an"/><g id="c"><use transform="matrix(0.05,0,0,0.05,0,0)" xlink:href="#ae"/><use transform="matrix(0.05,0,0,0.05,10.950000000000001,0)" xlink:href="#ad"/><use transform="matrix(0.05,0,0,0.05,20.950000000000003,0)" xlink:href="#ak"/><use transform="matrix(0.05,0,0,0.05,30.950000000000003,0)" xlink:href="#ag"/><use transform="matrix(0.05,0,0,0.05,37.95,0)" xlink:href="#al"/><use transform="matrix(0.05,0,0,0.05,48.900000000000006,0)" xlink:href="#am"/><use transform="matrix(0.05,0,0,0.05,58.900000000000006,0)" xlink:href="#an"/><use transform="matrix(0.05,0,0,0.05,74.9,0)" xlink:href="#ak"/></g><path fill="#333" d="M135-194c53 0 70 44 70 98 0 56-19 98-73 100-31 1-45-17-59-34 3 33 2 69 2 105H25l-1-265h48c2 10 0 23 3 31 11-24 29-35 60-35zM114-30c33 0 39-31 40-66 0-38-9-64-40-64-56 0-55 130 0 130" id="ao"/><path fill="#333" d="M231 0h-52l-39-155L100 0H48L-1-190h46L77-45c9-52 24-97 36-145h53l37 145 32-145h46" id="ap"/><g id="d"><use transform="matrix(0.05,0,0,0.05,0,0)" xlink:href="#ao"/><use transform="matrix(0.05,0,0,0.05,10.950000000000001,0)" xlink:href="#am"/><use transform="matrix(0.05,0,0,0.05,20.950000000000003,0)" xlink:href="#ad"/><use transform="matrix(0.05,0,0,0.05,30.950000000000003,0)" xlink:href="#ad"/><use transform="matrix(0.05,0,0,0.05,40.95,0)" xlink:href="#ap"/><use transform="matrix(0.05,0,0,0.05,54.95,0)" xlink:href="#ai"/><use transform="matrix(0.05,0,0,0.05,65.9,0)" xlink:href="#ag"/><use transform="matrix(0.05,0,0,0.05,72.9,0)" xlink:href="#aj"/></g><path fill="#333" d="M24 0v-248h52V0H24" id="aq"/><path fill="#333" d="M121-226c-27-7-43 5-38 36h38v33H83V0H34v-157H6v-33h28c-9-59 32-81 87-68v32" id="ar"/><path fill="#333" d="M190-63c-7 42-38 67-86 67-59 0-84-38-90-98-12-110 154-137 174-36l-49 2c-2-19-15-32-35-32-30 0-35 28-38 64-6 74 65 87 74 30zm-84 77c20 1 33 9 33 27 0 32-36 36-71 33V53c15 1 39 4 39-11 0-13-16-12-31-12L87 0h25" id="as"/><path fill="#333" d="M110-194c64 0 96 36 96 99 0 64-35 99-97 99-61 0-95-36-95-99 0-62 34-99 96-99zm-1 164c35 0 45-28 45-65 0-40-10-65-43-65-34 0-45 26-45 65 0 36 10 65 43 65zm70-229c-2 27-9 52-40 51-27-1-66-46-73 0H42c0-29 9-51 39-51 28 0 66 44 74 0h24" id="at"/><g id="e"><use transform="matrix(0.05,0,0,0.05,0,0)" xlink:href="#aq"/><use transform="matrix(0.05,0,0,0.05,5,0)" xlink:href="#al"/><use transform="matrix(0.05,0,0,0.05,15.950000000000001,0)" xlink:href="#ar"/><use transform="matrix(0.05,0,0,0.05,21.900000000000002,0)" xlink:href="#ai"/><use transform="matrix(0.05,0,0,0.05,32.85,0)" xlink:href="#ag"/><use transform="matrix(0.05,0,0,0.05,39.85,0)" xlink:href="#an"/><use transform="matrix(0.05,0,0,0.05,55.85,0)" xlink:href="#am"/><use transform="matrix(0.05,0,0,0.05,65.85,0)" xlink:href="#as"/><use transform="matrix(0.05,0,0,0.05,75.85,0)" xlink:href="#at"/><use transform="matrix(0.05,0,0,0.05,86.8,0)" xlink:href="#ak"/><use transform="matrix(0.05,0,0,0.05,96.8,0)" xlink:href="#ad"/><use transform="matrix(0.05,0,0,0.05,106.80000000000001,0)" xlink:href="#ac"/><use transform="matrix(0.05,0,0,0.05,119.75,0)" xlink:href="#ad"/><use transform="matrix(0.05,0,0,0.05,129.75,0)" xlink:href="#ae"/><use transform="matrix(0.05,0,0,0.05,140.7,0)" xlink:href="#af"/><use transform="matrix(0.05,0,0,0.05,150.7,0)" xlink:href="#ag"/><use transform="matrix(0.05,0,0,0.05,157.7,0)" xlink:href="#ah"/><use transform="matrix(0.05,0,0,0.05,162.7,0)" xlink:href="#ai"/></g><path fill="#333" d="M115-3C79 11 28 4 28-45v-112H4v-33h27l15-45h31v45h36v33H77v99c-1 23 16 31 38 25v30" id="au"/><path fill="#333" d="M175 0L67-191c6 58 2 128 3 191H24v-248h59L193-55c-6-58-2-129-3-193h46V0h-61" id="av"/><g id="f"><use transform="matrix(0.05,0,0,0.05,0,0)" xlink:href="#ar"/><use transform="matrix(0.05,0,0,0.05,5.95,0)" xlink:href="#ah"/><use transform="matrix(0.05,0,0,0.05,10.95,0)" xlink:href="#ag"/><use transform="matrix(0.05,0,0,0.05,17.95,0)" xlink:href="#ad"/><use transform="matrix(0.05,0,0,0.05,27.950000000000003,0)" xlink:href="#au"/><use transform="matrix(0.05,0,0,0.05,33.9,0)" xlink:href="#av"/><use transform="matrix(0.05,0,0,0.05,46.85,0)" xlink:href="#am"/><use transform="matrix(0.05,0,0,0.05,56.85,0)" xlink:href="#an"/><use transform="matrix(0.05,0,0,0.05,72.85,0)" xlink:href="#ak"/></g><path fill="#333" d="M25 0v-261h50V0H25" id="aw"/><g id="g"><use transform="matrix(0.05,0,0,0.05,0,0)" xlink:href="#aw"/><use transform="matrix(0.05,0,0,0.05,5,0)" xlink:href="#am"/><use transform="matrix(0.05,0,0,0.05,15,0)" xlink:href="#ad"/><use transform="matrix(0.05,0,0,0.05,25,0)" xlink:href="#au"/><use transform="matrix(0.05,0,0,0.05,30.950000000000003,0)" xlink:href="#av"/><use transform="matrix(0.05,0,0,0.05,43.9,0)" xlink:href="#am"/><use transform="matrix(0.05,0,0,0.05,53.900000000000006,0)" xlink:href="#an"/><use transform="matrix(0.05,0,0,0.05,69.9,0)" xlink:href="#ak"/></g><g id="h"><use transform="matrix(0.05,0,0,0.05,0,0)" xlink:href="#ak"/><use transform="matrix(0.05,0,0,0.05,10,0)" xlink:href="#an"/><use transform="matrix(0.05,0,0,0.05,26,0)" xlink:href="#am"/><use transform="matrix(0.05,0,0,0.05,36,0)" xlink:href="#ah"/><use transform="matrix(0.05,0,0,0.05,41,0)" xlink:href="#aw"/></g><path fill="#333" d="M23 0v-37h61v-169l-59 37v-38l62-41h46v211h57V0H23" id="ax"/><path fill="#333" d="M24-248c93 1 206-16 204 79-1 75-69 88-152 82V0H24v-248zm52 121c47 0 100 7 100-41 0-47-54-39-100-39v80" id="ay"/><g id="i"><use transform="matrix(0.05,0,0,0.05,0,0)" xlink:href="#ag"/><use transform="matrix(0.05,0,0,0.05,7,0)" xlink:href="#ai"/><use transform="matrix(0.05,0,0,0.05,17.950000000000003,0)" xlink:href="#ae"/><use transform="matrix(0.05,0,0,0.05,28.900000000000006,0)" xlink:href="#al"/><use transform="matrix(0.05,0,0,0.05,39.85000000000001,0)" xlink:href="#aj"/><use transform="matrix(0.05,0,0,0.05,50.80000000000001,0)" xlink:href="#ax"/><use transform="matrix(0.05,0,0,0.05,60.80000000000001,0)" xlink:href="#ay"/><use transform="matrix(0.05,0,0,0.05,72.80000000000001,0)" xlink:href="#ai"/><use transform="matrix(0.05,0,0,0.05,83.75000000000001,0)" xlink:href="#ah"/><use transform="matrix(0.05,0,0,0.05,88.75000000000001,0)" xlink:href="#al"/><use transform="matrix(0.05,0,0,0.05,99.70000000000002,0)" xlink:href="#au"/><use transform="matrix(0.05,0,0,0.05,105.65000000000003,0)" xlink:href="#ad"/></g><path fill="#333" d="M182-182c0 78-84 86-111 141h115V0H12c-6-101 99-100 120-180 1-22-12-31-33-32-23 0-32 14-35 34l-49-3c5-45 32-70 84-70 51 0 83 22 83 69" id="az"/><g id="j"><use transform="matrix(0.05,0,0,0.05,0,0)" xlink:href="#ag"/><use transform="matrix(0.05,0,0,0.05,7,0)" xlink:href="#ai"/><use transform="matrix(0.05,0,0,0.05,17.950000000000003,0)" xlink:href="#ae"/><use transform="matrix(0.05,0,0,0.05,28.900000000000006,0)" xlink:href="#al"/><use transform="matrix(0.05,0,0,0.05,39.85000000000001,0)" xlink:href="#aj"/><use transform="matrix(0.05,0,0,0.05,50.80000000000001,0)" xlink:href="#az"/><use transform="matrix(0.05,0,0,0.05,60.80000000000001,0)" xlink:href="#ay"/><use transform="matrix(0.05,0,0,0.05,72.80000000000001,0)" xlink:href="#ai"/><use transform="matrix(0.05,0,0,0.05,83.75000000000001,0)" xlink:href="#ah"/><use transform="matrix(0.05,0,0,0.05,88.75000000000001,0)" xlink:href="#al"/><use transform="matrix(0.05,0,0,0.05,99.70000000000002,0)" xlink:href="#au"/><use transform="matrix(0.05,0,0,0.05,105.65000000000003,0)" xlink:href="#ad"/></g><path fill="#333" d="M128-127c34 4 56 21 59 58 7 91-148 94-172 28-4-9-6-17-7-26l51-5c1 24 16 35 40 36 23 0 39-12 38-36-1-31-31-36-65-34v-40c32 2 59-3 59-33 0-20-13-33-34-33s-33 13-35 32l-50-3c6-44 37-68 86-68 50 0 83 20 83 66 0 35-22 52-53 58" id="aA"/><g id="k"><use transform="matrix(0.05,0,0,0.05,0,0)" xlink:href="#ag"/><use transform="matrix(0.05,0,0,0.05,7,0)" xlink:href="#ai"/><use transform="matrix(0.05,0,0,0.05,17.950000000000003,0)" xlink:href="#ae"/><use transform="matrix(0.05,0,0,0.05,28.900000000000006,0)" xlink:href="#al"/><use transform="matrix(0.05,0,0,0.05,39.85000000000001,0)" xlink:href="#aj"/><use transform="matrix(0.05,0,0,0.05,50.80000000000001,0)" xlink:href="#aA"/><use transform="matrix(0.05,0,0,0.05,60.80000000000001,0)" xlink:href="#ay"/><use transform="matrix(0.05,0,0,0.05,72.80000000000001,0)" xlink:href="#ai"/><use transform="matrix(0.05,0,0,0.05,83.75000000000001,0)" xlink:href="#ah"/><use transform="matrix(0.05,0,0,0.05,88.75000000000001,0)" xlink:href="#al"/><use transform="matrix(0.05,0,0,0.05,99.70000000000002,0)" xlink:href="#au"/><use transform="matrix(0.05,0,0,0.05,105.65000000000003,0)" xlink:href="#ad"/></g><path fill="#333" d="M165-50V0h-47v-50H5v-38l105-160h55v161h33v37h-33zm-47-37l2-116L46-87h72" id="aB"/><g id="l"><use transform="matrix(0.05,0,0,0.05,0,0)" xlink:href="#ag"/><use transform="matrix(0.05,0,0,0.05,7,0)" xlink:href="#ai"/><use transform="matrix(0.05,0,0,0.05,17.950000000000003,0)" xlink:href="#ae"/><use transform="matrix(0.05,0,0,0.05,28.900000000000006,0)" xlink:href="#al"/><use transform="matrix(0.05,0,0,0.05,39.85000000000001,0)" xlink:href="#aj"/><use transform="matrix(0.05,0,0,0.05,50.80000000000001,0)" xlink:href="#aB"/><use transform="matrix(0.05,0,0,0.05,60.80000000000001,0)" xlink:href="#ay"/><use transform="matrix(0.05,0,0,0.05,72.80000000000001,0)" xlink:href="#ai"/><use transform="matrix(0.05,0,0,0.05,83.75000000000001,0)" xlink:href="#ah"/><use transform="matrix(0.05,0,0,0.05,88.75000000000001,0)" xlink:href="#al"/><use transform="matrix(0.05,0,0,0.05,99.70000000000002,0)" xlink:href="#au"/><use transform="matrix(0.05,0,0,0.05,105.65000000000003,0)" xlink:href="#ad"/></g><path fill="#333" d="M176-78C186 10 51 31 16-35c-5-9-9-19-11-32l52-8c4 21 12 37 35 38 23 0 32-16 32-40v-130H75v-41h101v170" id="aC"/><path fill="#333" d="M195-6C206 82 75 100 31 46c-4-6-6-13-8-21l49-6c3 16 16 24 34 25 40 0 42-37 40-79-11 22-30 35-61 35-53 0-70-43-70-97 0-56 18-96 73-97 30 0 46 14 59 34l2-30h47zm-90-29c32 0 41-27 41-63 0-35-9-62-40-62-32 0-39 29-40 63 0 36 9 62 39 62" id="aD"/><path fill="#333" d="M186 0v-106H76V0H24v-248h52v99h110v-99h50V0h-50" id="aE"/><path fill="#333" d="M110-194c64 0 96 36 96 99 0 64-35 99-97 99-61 0-95-36-95-99 0-62 34-99 96-99zm-1 164c35 0 45-28 45-65 0-40-10-65-43-65-34 0-45 26-45 65 0 36 10 65 43 65zM81-208v-5l45-51h45v8l-60 48H81" id="aF"/><path fill="#333" d="M84 4C32 4 15-41 15-95c0-55 18-99 73-99 29 0 47 12 58 34l2-30h48l-1 265h-49V-32C136-9 114 4 84 4zm21-34c32 0 41-29 41-66 0-36-9-64-40-64-33 0-39 30-40 65 0 43 13 65 39 65" id="aG"/><g id="m"><use transform="matrix(0.05,0,0,0.05,0,0)" xlink:href="#aC"/><use transform="matrix(0.05,0,0,0.05,10,0)" xlink:href="#ai"/><use transform="matrix(0.05,0,0,0.05,20.950000000000003,0)" xlink:href="#aD"/><use transform="matrix(0.05,0,0,0.05,31.900000000000006,0)" xlink:href="#ai"/><use transform="matrix(0.05,0,0,0.05,42.85000000000001,0)" xlink:href="#aE"/><use transform="matrix(0.05,0,0,0.05,55.80000000000001,0)" xlink:href="#aF"/><use transform="matrix(0.05,0,0,0.05,66.75000000000001,0)" xlink:href="#aG"/><use transform="matrix(0.05,0,0,0.05,77.70000000000002,0)" xlink:href="#ae"/><use transform="matrix(0.05,0,0,0.05,88.65000000000002,0)" xlink:href="#ak"/><use transform="matrix(0.05,0,0,0.05,98.65000000000002,0)" xlink:href="#ah"/></g><g id="n"><use transform="matrix(0.05,0,0,0.05,0,0)" xlink:href="#ag"/><use transform="matrix(0.05,0,0,0.05,7,0)" xlink:href="#ai"/><use transform="matrix(0.05,0,0,0.05,17.950000000000003,0)" xlink:href="#ae"/><use transform="matrix(0.05,0,0,0.05,28.900000000000006,0)" xlink:href="#al"/><use transform="matrix(0.05,0,0,0.05,39.85000000000001,0)" xlink:href="#aj"/><use transform="matrix(0.05,0,0,0.05,50.80000000000001,0)" xlink:href="#aq"/><use transform="matrix(0.05,0,0,0.05,55.80000000000001,0)" xlink:href="#aj"/></g><path fill="#333" d="M136-208V0H84v-208H4v-40h212v40h-80" id="aH"/><g id="o"><use transform="matrix(0.05,0,0,0.05,0,0)" xlink:href="#ad"/><use transform="matrix(0.05,0,0,0.05,10,0)" xlink:href="#au"/><use transform="matrix(0.05,0,0,0.05,15.949999999999998,0)" xlink:href="#am"/><use transform="matrix(0.05,0,0,0.05,25.950000000000003,0)" xlink:href="#ag"/><use transform="matrix(0.05,0,0,0.05,32.95,0)" xlink:href="#au"/><use transform="matrix(0.05,0,0,0.05,38.900000000000006,0)" xlink:href="#aH"/><use transform="matrix(0.05,0,0,0.05,49.50000000000001,0)" xlink:href="#ah"/><use transform="matrix(0.05,0,0,0.05,54.5,0)" xlink:href="#an"/><use transform="matrix(0.05,0,0,0.05,70.5,0)" xlink:href="#ak"/></g><path fill="#333" d="M190-63c-7 42-38 67-86 67-59 0-84-38-90-98-12-110 154-137 174-36l-49 2c-2-19-15-32-35-32-30 0-35 28-38 64-6 74 65 87 74 30" id="aI"/><g id="p"><use transform="matrix(0.05,0,0,0.05,0,0)" xlink:href="#aj"/><use transform="matrix(0.05,0,0,0.05,10.950000000000001,0)" xlink:href="#ak"/><use transform="matrix(0.05,0,0,0.05,20.950000000000003,0)" xlink:href="#ad"/><use transform="matrix(0.05,0,0,0.05,30.950000000000003,0)" xlink:href="#aI"/><use transform="matrix(0.05,0,0,0.05,40.95,0)" xlink:href="#ag"/><use transform="matrix(0.05,0,0,0.05,47.95,0)" xlink:href="#ah"/><use transform="matrix(0.05,0,0,0.05,52.95,0)" xlink:href="#ao"/><use transform="matrix(0.05,0,0,0.05,63.900000000000006,0)" xlink:href="#au"/><use transform="matrix(0.05,0,0,0.05,69.85000000000001,0)" xlink:href="#ah"/><use transform="matrix(0.05,0,0,0.05,74.85000000000001,0)" xlink:href="#ai"/><use transform="matrix(0.05,0,0,0.05,85.80000000000001,0)" xlink:href="#al"/></g><g id="q"><use transform="matrix(0.05,0,0,0.05,0,0)" xlink:href="#au"/><use transform="matrix(0.05,0,0,0.05,5.95,0)" xlink:href="#ak"/><use transform="matrix(0.05,0,0,0.05,15.949999999999998,0)" xlink:href="#am"/><use transform="matrix(0.05,0,0,0.05,25.950000000000003,0)" xlink:href="#an"/><use transform="matrix(0.05,0,0,0.05,41.95,0)" xlink:href="#ax"/><use transform="matrix(0.05,0,0,0.05,51.95,0)" xlink:href="#aq"/><use transform="matrix(0.05,0,0,0.05,56.95,0)" xlink:href="#aj"/></g><g id="r"><use transform="matrix(0.05,0,0,0.05,0,0)" xlink:href="#au"/><use transform="matrix(0.05,0,0,0.05,5.95,0)" xlink:href="#ak"/><use transform="matrix(0.05,0,0,0.05,15.949999999999998,0)" xlink:href="#am"/><use transform="matrix(0.05,0,0,0.05,25.950000000000003,0)" xlink:href="#an"/><use transform="matrix(0.05,0,0,0.05,41.95,0)" xlink:href="#az"/><use transform="matrix(0.05,0,0,0.05,51.95,0)" xlink:href="#aq"/><use transform="matrix(0.05,0,0,0.05,56.95,0)" xlink:href="#aj"/></g><g id="s"><use transform="matrix(0.05,0,0,0.05,0,0)" xlink:href="#ay"/><use transform="matrix(0.05,0,0,0.05,12,0)" xlink:href="#ai"/><use transform="matrix(0.05,0,0,0.05,22.950000000000003,0)" xlink:href="#al"/><use transform="matrix(0.05,0,0,0.05,33.900000000000006,0)" xlink:href="#au"/><use transform="matrix(0.05,0,0,0.05,39.85000000000001,0)" xlink:href="#ae"/><use transform="matrix(0.05,0,0,0.05,50.80000000000001,0)" xlink:href="#am"/><use transform="matrix(0.05,0,0,0.05,60.80000000000001,0)" xlink:href="#as"/><use transform="matrix(0.05,0,0,0.05,70.80000000000001,0)" xlink:href="#at"/><use transform="matrix(0.05,0,0,0.05,81.75000000000001,0)" xlink:href="#ak"/><use transform="matrix(0.05,0,0,0.05,91.75000000000001,0)" xlink:href="#ad"/><use transform="matrix(0.05,0,0,0.05,101.75000000000001,0)" xlink:href="#aC"/><use transform="matrix(0.05,0,0,0.05,111.75,0)" xlink:href="#ai"/><use transform="matrix(0.05,0,0,0.05,122.7,0)" xlink:href="#aD"/><use transform="matrix(0.05,0,0,0.05,133.65,0)" xlink:href="#ai"/></g><path fill="#333" d="M169-182c-1-43-94-46-97-3 18 66 151 10 154 114 3 95-165 93-204 36-6-8-10-19-12-30l50-8c3 46 112 56 116 5-17-69-150-10-154-114-4-87 153-88 188-35 5 8 8 18 10 28" id="aJ"/><g id="t"><use transform="matrix(0.05,0,0,0.05,0,0)" xlink:href="#au"/><use transform="matrix(0.05,0,0,0.05,5.95,0)" xlink:href="#ak"/><use transform="matrix(0.05,0,0,0.05,15.949999999999998,0)" xlink:href="#am"/><use transform="matrix(0.05,0,0,0.05,25.950000000000003,0)" xlink:href="#an"/><use transform="matrix(0.05,0,0,0.05,41.95,0)" xlink:href="#ax"/><use transform="matrix(0.05,0,0,0.05,51.95,0)" xlink:href="#aJ"/><use transform="matrix(0.05,0,0,0.05,63.95,0)" xlink:href="#aI"/><use transform="matrix(0.05,0,0,0.05,73.95,0)" xlink:href="#ai"/><use transform="matrix(0.05,0,0,0.05,84.9,0)" xlink:href="#ag"/><use transform="matrix(0.05,0,0,0.05,91.9,0)" xlink:href="#ak"/></g><g id="u"><use transform="matrix(0.05,0,0,0.05,0,0)" xlink:href="#au"/><use transform="matrix(0.05,0,0,0.05,5.95,0)" xlink:href="#ak"/><use transform="matrix(0.05,0,0,0.05,15.949999999999998,0)" xlink:href="#am"/><use transform="matrix(0.05,0,0,0.05,25.950000000000003,0)" xlink:href="#an"/><use transform="matrix(0.05,0,0,0.05,41.95,0)" xlink:href="#az"/><use transform="matrix(0.05,0,0,0.05,51.95,0)" xlink:href="#aJ"/><use transform="matrix(0.05,0,0,0.05,63.95,0)" xlink:href="#aI"/><use transform="matrix(0.05,0,0,0.05,73.95,0)" xlink:href="#ai"/><use transform="matrix(0.05,0,0,0.05,84.9,0)" xlink:href="#ag"/><use transform="matrix(0.05,0,0,0.05,91.9,0)" xlink:href="#ak"/></g><path fill="#333" d="M24 0v-248h195v40H76v63h132v40H76v65h150V0H24" id="aK"/><path fill="#333" d="M25 0v-190h50V0H25zm-5-208v-5l45-51h45v8l-60 48H20" id="aL"/><path fill="#333" d="M240-174c0 40-23 61-54 70L253 0h-59l-57-94H76V0H24v-248c93 4 217-23 216 74zM76-134c48-2 112 12 112-38 0-48-66-32-112-35v73" id="aM"/><g id="v"><use transform="matrix(0.05,0,0,0.05,0,0)" xlink:href="#aK"/><use transform="matrix(0.05,0,0,0.05,12,0)" xlink:href="#ad"/><use transform="matrix(0.05,0,0,0.05,22,0)" xlink:href="#au"/><use transform="matrix(0.05,0,0,0.05,27.950000000000003,0)" xlink:href="#am"/><use transform="matrix(0.05,0,0,0.05,37.95,0)" xlink:href="#au"/><use transform="matrix(0.05,0,0,0.05,43.900000000000006,0)" xlink:href="#aL"/><use transform="matrix(0.05,0,0,0.05,48.900000000000006,0)" xlink:href="#ad"/><use transform="matrix(0.05,0,0,0.05,58.900000000000006,0)" xlink:href="#au"/><use transform="matrix(0.05,0,0,0.05,64.85000000000001,0)" xlink:href="#ah"/><use transform="matrix(0.05,0,0,0.05,69.85000000000001,0)" xlink:href="#aI"/><use transform="matrix(0.05,0,0,0.05,79.85000000000001,0)" xlink:href="#am"/><use transform="matrix(0.05,0,0,0.05,89.85000000000001,0)" xlink:href="#ad"/><use transform="matrix(0.05,0,0,0.05,99.85000000000001,0)" xlink:href="#aM"/><use transform="matrix(0.05,0,0,0.05,112.80000000000001,0)" xlink:href="#ai"/><use transform="matrix(0.05,0,0,0.05,123.75,0)" xlink:href="#aj"/><use transform="matrix(0.05,0,0,0.05,134.70000000000002,0)" xlink:href="#am"/><use transform="matrix(0.05,0,0,0.05,144.70000000000002,0)" xlink:href="#aj"/><use transform="matrix(0.05,0,0,0.05,155.65,0)" xlink:href="#am"/></g><path fill="#333" d="M114-157C55-157 80-60 75 0H25v-261h50l-1 109c12-26 28-41 61-42 86-1 58 113 63 194h-50c-7-57 23-157-34-157" id="aN"/><g id="w"><use transform="matrix(0.05,0,0,0.05,0,0)" xlink:href="#al"/><use transform="matrix(0.05,0,0,0.05,10.950000000000001,0)" xlink:href="#ae"/><use transform="matrix(0.05,0,0,0.05,21.900000000000002,0)" xlink:href="#an"/><use transform="matrix(0.05,0,0,0.05,37.900000000000006,0)" xlink:href="#aJ"/><use transform="matrix(0.05,0,0,0.05,49.900000000000006,0)" xlink:href="#aN"/><use transform="matrix(0.05,0,0,0.05,60.85,0)" xlink:href="#ae"/><use transform="matrix(0.05,0,0,0.05,71.80000000000001,0)" xlink:href="#au"/><use transform="matrix(0.05,0,0,0.05,77.75000000000001,0)" xlink:href="#ai"/><use transform="matrix(0.05,0,0,0.05,88.70000000000002,0)" xlink:href="#ae"/><use transform="matrix(0.05,0,0,0.05,99.65000000000002,0)" xlink:href="#au"/><use transform="matrix(0.05,0,0,0.05,105.60000000000002,0)" xlink:href="#ad"/></g><path fill="#333" d="M24 0v-248h52v208h133V0H24" id="aO"/><g id="x"><use transform="matrix(0.05,0,0,0.05,0,0)" xlink:href="#aD"/><use transform="matrix(0.05,0,0,0.05,10.950000000000001,0)" xlink:href="#ai"/><use transform="matrix(0.05,0,0,0.05,21.900000000000002,0)" xlink:href="#am"/><use transform="matrix(0.05,0,0,0.05,31.900000000000002,0)" xlink:href="#aw"/><use transform="matrix(0.05,0,0,0.05,36.900000000000006,0)" xlink:href="#aO"/><use transform="matrix(0.05,0,0,0.05,47.85000000000001,0)" xlink:href="#ak"/><use transform="matrix(0.05,0,0,0.05,57.85,0)" xlink:href="#am"/><use transform="matrix(0.05,0,0,0.05,67.85000000000001,0)" xlink:href="#aj"/><use transform="matrix(0.05,0,0,0.05,78.80000000000001,0)" xlink:href="#ak"/><use transform="matrix(0.05,0,0,0.05,88.80000000000001,0)" xlink:href="#ag"/><use transform="matrix(0.05,0,0,0.05,95.80000000000001,0)" xlink:href="#aq"/><use transform="matrix(0.05,0,0,0.05,100.80000000000001,0)" xlink:href="#aj"/></g><g id="y"><use transform="matrix(0.05,0,0,0.05,0,0)" xlink:href="#am"/><use transform="matrix(0.05,0,0,0.05,10,0)" xlink:href="#ad"/><use transform="matrix(0.05,0,0,0.05,20,0)" xlink:href="#ad"/><use transform="matrix(0.05,0,0,0.05,30,0)" xlink:href="#ah"/><use transform="matrix(0.05,0,0,0.05,35,0)" xlink:href="#ad"/><use transform="matrix(0.05,0,0,0.05,45,0)" xlink:href="#au"/><use transform="matrix(0.05,0,0,0.05,50.95,0)" xlink:href="#aO"/><use transform="matrix(0.05,0,0,0.05,61.900000000000006,0)" xlink:href="#ak"/><use transform="matrix(0.05,0,0,0.05,71.9,0)" xlink:href="#am"/><use transform="matrix(0.05,0,0,0.05,81.9,0)" xlink:href="#aj"/><use transform="matrix(0.05,0,0,0.05,92.85000000000001,0)" xlink:href="#ak"/><use transform="matrix(0.05,0,0,0.05,102.85000000000001,0)" xlink:href="#ag"/><use transform="matrix(0.05,0,0,0.05,109.85000000000001,0)" xlink:href="#aq"/><use transform="matrix(0.05,0,0,0.05,114.85000000000001,0)" xlink:href="#aj"/></g><path fill="#333" d="M123 10C108 53 80 86 19 72V37c35 8 53-11 59-39L3-190h52l48 148c12-52 28-100 44-148h51" id="aP"/><g id="z"><use transform="matrix(0.05,0,0,0.05,0,0)" xlink:href="#ao"/><use transform="matrix(0.05,0,0,0.05,10.950000000000001,0)" xlink:href="#ak"/><use transform="matrix(0.05,0,0,0.05,20.950000000000003,0)" xlink:href="#al"/><use transform="matrix(0.05,0,0,0.05,31.900000000000006,0)" xlink:href="#am"/><use transform="matrix(0.05,0,0,0.05,41.900000000000006,0)" xlink:href="#aw"/><use transform="matrix(0.05,0,0,0.05,46.900000000000006,0)" xlink:href="#au"/><use transform="matrix(0.05,0,0,0.05,52.85,0)" xlink:href="#aP"/><use transform="matrix(0.05,0,0,0.05,62.85,0)" xlink:href="#aO"/><use transform="matrix(0.05,0,0,0.05,73.80000000000001,0)" xlink:href="#ak"/><use transform="matrix(0.05,0,0,0.05,83.80000000000001,0)" xlink:href="#am"/><use transform="matrix(0.05,0,0,0.05,93.80000000000001,0)" xlink:href="#aj"/><use transform="matrix(0.05,0,0,0.05,104.75,0)" xlink:href="#ak"/><use transform="matrix(0.05,0,0,0.05,114.75,0)" xlink:href="#ag"/><use transform="matrix(0.05,0,0,0.05,121.75,0)" xlink:href="#aq"/><use transform="matrix(0.05,0,0,0.05,126.75,0)" xlink:href="#aj"/></g><path fill="#333" d="M230 0l2-204L168 0h-37L68-204 70 0H24v-248h70l56 185 57-185h69V0h-46" id="aQ"/><g id="A"><use transform="matrix(0.05,0,0,0.05,0,0)" xlink:href="#ao"/><use transform="matrix(0.05,0,0,0.05,10.950000000000001,0)" xlink:href="#aw"/><use transform="matrix(0.05,0,0,0.05,15.950000000000001,0)" xlink:href="#ae"/><use transform="matrix(0.05,0,0,0.05,26.900000000000002,0)" xlink:href="#ad"/><use transform="matrix(0.05,0,0,0.05,36.900000000000006,0)" xlink:href="#aQ"/><use transform="matrix(0.05,0,0,0.05,51.85,0)" xlink:href="#ah"/><use transform="matrix(0.05,0,0,0.05,56.85,0)" xlink:href="#al"/><use transform="matrix(0.05,0,0,0.05,67.80000000000001,0)" xlink:href="#ae"/><use transform="matrix(0.05,0,0,0.05,78.75000000000001,0)" xlink:href="#ad"/><use transform="matrix(0.05,0,0,0.05,88.75000000000001,0)" xlink:href="#aO"/><use transform="matrix(0.05,0,0,0.05,99.70000000000002,0)" xlink:href="#ak"/><use transform="matrix(0.05,0,0,0.05,109.7,0)" xlink:href="#am"/><use transform="matrix(0.05,0,0,0.05,119.7,0)" xlink:href="#aj"/><use transform="matrix(0.05,0,0,0.05,130.65,0)" xlink:href="#ak"/><use transform="matrix(0.05,0,0,0.05,140.65,0)" xlink:href="#ag"/><use transform="matrix(0.05,0,0,0.05,147.65,0)" xlink:href="#aq"/><use transform="matrix(0.05,0,0,0.05,152.65,0)" xlink:href="#aj"/></g><path fill="#333" d="M275 0h-61l-44-196L126 0H64L0-248h53L97-49l45-199h58l43 199 44-199h52" id="aR"/><g id="B"><use transform="matrix(0.05,0,0,0.05,0,0)" xlink:href="#ar"/><use transform="matrix(0.05,0,0,0.05,5.95,0)" xlink:href="#am"/><use transform="matrix(0.05,0,0,0.05,15.949999999999998,0)" xlink:href="#aI"/><use transform="matrix(0.05,0,0,0.05,25.950000000000003,0)" xlink:href="#ak"/><use transform="matrix(0.05,0,0,0.05,35.95,0)" xlink:href="#ai"/><use transform="matrix(0.05,0,0,0.05,46.900000000000006,0)" xlink:href="#ar"/><use transform="matrix(0.05,0,0,0.05,52.85,0)" xlink:href="#ar"/><use transform="matrix(0.05,0,0,0.05,58.80000000000001,0)" xlink:href="#ad"/><use transform="matrix(0.05,0,0,0.05,68.80000000000001,0)" xlink:href="#aR"/><use transform="matrix(0.05,0,0,0.05,85.40000000000002,0)" xlink:href="#ai"/><use transform="matrix(0.05,0,0,0.05,96.35000000000002,0)" xlink:href="#al"/><use transform="matrix(0.05,0,0,0.05,107.30000000000003,0)" xlink:href="#aO"/><use transform="matrix(0.05,0,0,0.05,118.25000000000003,0)" xlink:href="#ak"/><use transform="matrix(0.05,0,0,0.05,128.25000000000003,0)" xlink:href="#am"/><use transform="matrix(0.05,0,0,0.05,138.25000000000003,0)" xlink:href="#aj"/><use transform="matrix(0.05,0,0,0.05,149.20000000000002,0)" xlink:href="#ak"/><use transform="matrix(0.05,0,0,0.05,159.20000000000002,0)" xlink:href="#ag"/><use transform="matrix(0.05,0,0,0.05,166.20000000000002,0)" xlink:href="#aq"/><use transform="matrix(0.05,0,0,0.05,171.20000000000002,0)" xlink:href="#aj"/></g><g id="C"><use transform="matrix(0.05,0,0,0.05,0,0)" xlink:href="#ad"/><use transform="matrix(0.05,0,0,0.05,10,0)" xlink:href="#ai"/><use transform="matrix(0.05,0,0,0.05,20.950000000000003,0)" xlink:href="#aD"/><use transform="matrix(0.05,0,0,0.05,31.900000000000006,0)" xlink:href="#aO"/><use transform="matrix(0.05,0,0,0.05,42.85000000000001,0)" xlink:href="#ak"/><use transform="matrix(0.05,0,0,0.05,52.85,0)" xlink:href="#am"/><use transform="matrix(0.05,0,0,0.05,62.85,0)" xlink:href="#aj"/><use transform="matrix(0.05,0,0,0.05,73.80000000000001,0)" xlink:href="#ak"/><use transform="matrix(0.05,0,0,0.05,83.80000000000001,0)" xlink:href="#ag"/><use transform="matrix(0.05,0,0,0.05,90.80000000000001,0)" xlink:href="#aq"/><use transform="matrix(0.05,0,0,0.05,95.80000000000001,0)" xlink:href="#aj"/></g><path fill="#333" d="M132-34C116-15 102 5 68 4 31 3 10-16 10-54c-1-60 55-63 116-61 1-26-3-47-28-47-18 1-26 9-28 27l-52-2c7-38 36-58 82-57s74 22 75 68l1 82c-1 14 12 18 25 15v27c-30 8-71 5-69-32zm-48 3c29 0 43-24 42-57-32 0-66-3-65 30 0 17 8 27 23 27zm82-228c-2 27-9 52-40 51-27-1-66-46-73 0H29c0-29 9-51 39-51 28 0 66 44 74 0h24" id="aS"/><g id="D"><use transform="matrix(0.05,0,0,0.05,0,0)" xlink:href="#aK"/><use transform="matrix(0.05,0,0,0.05,12,0)" xlink:href="#ad"/><use transform="matrix(0.05,0,0,0.05,22,0)" xlink:href="#aI"/><use transform="matrix(0.05,0,0,0.05,32,0)" xlink:href="#ai"/><use transform="matrix(0.05,0,0,0.05,42.95,0)" xlink:href="#aw"/><use transform="matrix(0.05,0,0,0.05,47.95,0)" xlink:href="#aN"/><use transform="matrix(0.05,0,0,0.05,58.900000000000006,0)" xlink:href="#am"/><use transform="matrix(0.05,0,0,0.05,68.9,0)" xlink:href="#ad"/><use transform="matrix(0.05,0,0,0.05,78.9,0)" xlink:href="#ay"/><use transform="matrix(0.05,0,0,0.05,90.9,0)" xlink:href="#ai"/><use transform="matrix(0.05,0,0,0.05,101.85000000000001,0)" xlink:href="#al"/><use transform="matrix(0.05,0,0,0.05,112.80000000000001,0)" xlink:href="#au"/><use transform="matrix(0.05,0,0,0.05,118.75,0)" xlink:href="#ae"/><use transform="matrix(0.05,0,0,0.05,129.70000000000002,0)" xlink:href="#am"/><use transform="matrix(0.05,0,0,0.05,139.70000000000002,0)" xlink:href="#as"/><use transform="matrix(0.05,0,0,0.05,149.70000000000002,0)" xlink:href="#aS"/><use transform="matrix(0.05,0,0,0.05,159.70000000000002,0)" xlink:href="#ai"/><use transform="matrix(0.05,0,0,0.05,170.65,0)" xlink:href="#ac"/><use transform="matrix(0.05,0,0,0.05,183.6,0)" xlink:href="#ad"/><use transform="matrix(0.05,0,0,0.05,193.6,0)" xlink:href="#ae"/><use transform="matrix(0.05,0,0,0.05,204.54999999999998,0)" xlink:href="#af"/><use transform="matrix(0.05,0,0,0.05,214.54999999999995,0)" xlink:href="#ag"/><use transform="matrix(0.05,0,0,0.05,221.54999999999995,0)" xlink:href="#ah"/><use transform="matrix(0.05,0,0,0.05,226.54999999999995,0)" xlink:href="#ai"/></g><path fill="#333" d="M147 0L96-86 75-71V0H25v-261h50v150l67-79h53l-66 74L201 0h-54" id="aT"/><path fill="#333" d="M67-125c0 54 23 88 75 88 28 0 53-7 68-21v-34h-60v-39h108v91C232-14 192 4 140 4 58 4 20-42 15-125 8-236 126-280 215-234c19 10 29 26 37 47l-47 15c-11-23-29-39-63-39-53 1-75 33-75 86" id="aU"/><g id="E"><use transform="matrix(0.05,0,0,0.05,0,0)" xlink:href="#aN"/><use transform="matrix(0.05,0,0,0.05,10.950000000000001,0)" xlink:href="#ai"/><use transform="matrix(0.05,0,0,0.05,21.900000000000002,0)" xlink:href="#aI"/><use transform="matrix(0.05,0,0,0.05,31.900000000000002,0)" xlink:href="#aT"/><use transform="matrix(0.05,0,0,0.05,41.900000000000006,0)" xlink:href="#ak"/><use transform="matrix(0.05,0,0,0.05,51.900000000000006,0)" xlink:href="#aP"/><use transform="matrix(0.05,0,0,0.05,61.900000000000006,0)" xlink:href="#aU"/><use transform="matrix(0.05,0,0,0.05,75.9,0)" xlink:href="#am"/><use transform="matrix(0.05,0,0,0.05,85.9,0)" xlink:href="#an"/><use transform="matrix(0.05,0,0,0.05,101.9,0)" xlink:href="#ak"/><use transform="matrix(0.05,0,0,0.05,111.9,0)" xlink:href="#aq"/><use transform="matrix(0.05,0,0,0.05,116.9,0)" xlink:href="#aj"/></g><g id="F"><use transform="matrix(0.05,0,0,0.05,0,0)" xlink:href="#au"/><use transform="matrix(0.05,0,0,0.05,5.95,0)" xlink:href="#ak"/><use transform="matrix(0.05,0,0,0.05,15.949999999999998,0)" xlink:href="#am"/><use transform="matrix(0.05,0,0,0.05,25.950000000000003,0)" xlink:href="#an"/><use transform="matrix(0.05,0,0,0.05,41.95,0)" xlink:href="#ax"/><use transform="matrix(0.05,0,0,0.05,51.95,0)" xlink:href="#ad"/><use transform="matrix(0.05,0,0,0.05,61.95,0)" xlink:href="#aI"/><use transform="matrix(0.05,0,0,0.05,71.95,0)" xlink:href="#ai"/><use transform="matrix(0.05,0,0,0.05,82.9,0)" xlink:href="#ag"/><use transform="matrix(0.05,0,0,0.05,89.9,0)" xlink:href="#ak"/></g><g id="G"><use transform="matrix(0.05,0,0,0.05,0,0)" xlink:href="#au"/><use transform="matrix(0.05,0,0,0.05,5.95,0)" xlink:href="#ak"/><use transform="matrix(0.05,0,0,0.05,15.949999999999998,0)" xlink:href="#am"/><use transform="matrix(0.05,0,0,0.05,25.950000000000003,0)" xlink:href="#an"/><use transform="matrix(0.05,0,0,0.05,41.95,0)" xlink:href="#az"/><use transform="matrix(0.05,0,0,0.05,51.95,0)" xlink:href="#ad"/><use transform="matrix(0.05,0,0,0.05,61.95,0)" xlink:href="#aI"/><use transform="matrix(0.05,0,0,0.05,71.95,0)" xlink:href="#ai"/><use transform="matrix(0.05,0,0,0.05,82.9,0)" xlink:href="#ag"/><use transform="matrix(0.05,0,0,0.05,89.9,0)" xlink:href="#ak"/></g><g id="H"><use transform="matrix(0.05,0,0,0.05,0,0)" xlink:href="#ae"/><use transform="matrix(0.05,0,0,0.05,10.950000000000001,0)" xlink:href="#ad"/><use transform="matrix(0.05,0,0,0.05,20.950000000000003,0)" xlink:href="#ak"/><use transform="matrix(0.05,0,0,0.05,30.950000000000003,0)" xlink:href="#ag"/><use transform="matrix(0.05,0,0,0.05,37.95,0)" xlink:href="#aq"/><use transform="matrix(0.05,0,0,0.05,42.95,0)" xlink:href="#aj"/></g><g id="I"><use transform="matrix(0.05,0,0,0.05,0,0)" xlink:href="#aK"/><use transform="matrix(0.05,0,0,0.05,12,0)" xlink:href="#ad"/><use transform="matrix(0.05,0,0,0.05,22,0)" xlink:href="#aI"/><use transform="matrix(0.05,0,0,0.05,32,0)" xlink:href="#ai"/><use transform="matrix(0.05,0,0,0.05,42.95,0)" xlink:href="#aw"/><use transform="matrix(0.05,0,0,0.05,47.95,0)" xlink:href="#aN"/><use transform="matrix(0.05,0,0,0.05,58.900000000000006,0)" xlink:href="#am"/><use transform="matrix(0.05,0,0,0.05,68.9,0)" xlink:href="#ad"/><use transform="matrix(0.05,0,0,0.05,78.9,0)" xlink:href="#aK"/><use transform="matrix(0.05,0,0,0.05,90.9,0)" xlink:href="#ad"/><use transform="matrix(0.05,0,0,0.05,100.9,0)" xlink:href="#au"/><use transform="matrix(0.05,0,0,0.05,106.85000000000001,0)" xlink:href="#am"/><use transform="matrix(0.05,0,0,0.05,116.85000000000001,0)" xlink:href="#au"/><use transform="matrix(0.05,0,0,0.05,122.80000000000001,0)" xlink:href="#aL"/><use transform="matrix(0.05,0,0,0.05,127.80000000000001,0)" xlink:href="#ad"/><use transform="matrix(0.05,0,0,0.05,137.8,0)" xlink:href="#au"/><use transform="matrix(0.05,0,0,0.05,143.75,0)" xlink:href="#ah"/><use transform="matrix(0.05,0,0,0.05,148.75,0)" xlink:href="#aI"/><use transform="matrix(0.05,0,0,0.05,158.75,0)" xlink:href="#am"/><use transform="matrix(0.05,0,0,0.05,168.75,0)" xlink:href="#ac"/><use transform="matrix(0.05,0,0,0.05,181.7,0)" xlink:href="#ad"/><use transform="matrix(0.05,0,0,0.05,191.7,0)" xlink:href="#ae"/><use transform="matrix(0.05,0,0,0.05,202.64999999999998,0)" xlink:href="#af"/><use transform="matrix(0.05,0,0,0.05,212.64999999999998,0)" xlink:href="#ag"/><use transform="matrix(0.05,0,0,0.05,219.64999999999998,0)" xlink:href="#ah"/><use transform="matrix(0.05,0,0,0.05,224.64999999999998,0)" xlink:href="#ai"/></g><g id="J"><use transform="matrix(0.05,0,0,0.05,0,0)" xlink:href="#aM"/><use transform="matrix(0.05,0,0,0.05,12.950000000000001,0)" xlink:href="#ai"/><use transform="matrix(0.05,0,0,0.05,23.900000000000002,0)" xlink:href="#aj"/><use transform="matrix(0.05,0,0,0.05,34.85,0)" xlink:href="#am"/><use transform="matrix(0.05,0,0,0.05,44.85,0)" xlink:href="#aj"/><use transform="matrix(0.05,0,0,0.05,55.800000000000004,0)" xlink:href="#am"/><use transform="matrix(0.05,0,0,0.05,65.80000000000001,0)" xlink:href="#aK"/><use transform="matrix(0.05,0,0,0.05,77.80000000000001,0)" xlink:href="#aw"/><use transform="matrix(0.05,0,0,0.05,82.80000000000001,0)" xlink:href="#ah"/><use transform="matrix(0.05,0,0,0.05,87.80000000000001,0)" xlink:href="#an"/><use transform="matrix(0.05,0,0,0.05,103.80000000000001,0)" xlink:href="#ah"/><use transform="matrix(0.05,0,0,0.05,108.80000000000001,0)" xlink:href="#al"/><use transform="matrix(0.05,0,0,0.05,119.75,0)" xlink:href="#am"/><use transform="matrix(0.05,0,0,0.05,129.75,0)" xlink:href="#au"/><use transform="matrix(0.05,0,0,0.05,135.7,0)" xlink:href="#aF"/><use transform="matrix(0.05,0,0,0.05,146.64999999999998,0)" xlink:href="#ag"/><use transform="matrix(0.05,0,0,0.05,153.64999999999998,0)" xlink:href="#ah"/><use transform="matrix(0.05,0,0,0.05,158.64999999999998,0)" xlink:href="#am"/></g><g id="K"><use transform="matrix(0.05,0,0,0.05,0,0)" xlink:href="#ak"/><use transform="matrix(0.05,0,0,0.05,10,0)" xlink:href="#al"/><use transform="matrix(0.05,0,0,0.05,20.950000000000003,0)" xlink:href="#aj"/><use transform="matrix(0.05,0,0,0.05,31.900000000000006,0)" xlink:href="#aH"/><use transform="matrix(0.05,0,0,0.05,42.50000000000001,0)" xlink:href="#ah"/><use transform="matrix(0.05,0,0,0.05,47.50000000000001,0)" xlink:href="#an"/><use transform="matrix(0.05,0,0,0.05,63.5,0)" xlink:href="#ak"/></g><g id="L"><use transform="matrix(0.05,0,0,0.05,0,0)" xlink:href="#ag"/><use transform="matrix(0.05,0,0,0.05,7,0)" xlink:href="#ai"/><use transform="matrix(0.05,0,0,0.05,17.950000000000003,0)" xlink:href="#ae"/><use transform="matrix(0.05,0,0,0.05,28.900000000000006,0)" xlink:href="#al"/><use transform="matrix(0.05,0,0,0.05,39.85000000000001,0)" xlink:href="#aj"/><use transform="matrix(0.05,0,0,0.05,50.80000000000001,0)" xlink:href="#av"/><use transform="matrix(0.05,0,0,0.05,63.750000000000014,0)" xlink:href="#ae"/><use transform="matrix(0.05,0,0,0.05,74.70000000000002,0)" xlink:href="#an"/></g><g id="M"><use transform="matrix(0.05,0,0,0.05,0,0)" xlink:href="#aK"/><use transform="matrix(0.05,0,0,0.05,12,0)" xlink:href="#aG"/><use transform="matrix(0.05,0,0,0.05,22.950000000000003,0)" xlink:href="#ae"/><use transform="matrix(0.05,0,0,0.05,33.900000000000006,0)" xlink:href="#ah"/><use transform="matrix(0.05,0,0,0.05,38.900000000000006,0)" xlink:href="#ao"/><use transform="matrix(0.05,0,0,0.05,49.85000000000001,0)" xlink:href="#ak"/><use transform="matrix(0.05,0,0,0.05,59.85,0)" xlink:href="#aE"/><use transform="matrix(0.05,0,0,0.05,72.80000000000001,0)" xlink:href="#aF"/><use transform="matrix(0.05,0,0,0.05,83.75000000000001,0)" xlink:href="#aG"/><use transform="matrix(0.05,0,0,0.05,94.70000000000002,0)" xlink:href="#ae"/><use transform="matrix(0.05,0,0,0.05,105.65000000000003,0)" xlink:href="#ak"/><use transform="matrix(0.05,0,0,0.05,115.65000000000003,0)" xlink:href="#ah"/></g><g id="N"><use transform="matrix(0.05,0,0,0.05,0,0)" xlink:href="#al"/><use transform="matrix(0.05,0,0,0.05,10.950000000000001,0)" xlink:href="#am"/><use transform="matrix(0.05,0,0,0.05,20.950000000000003,0)" xlink:href="#an"/><use transform="matrix(0.05,0,0,0.05,36.95,0)" xlink:href="#ak"/></g><g id="O"><use transform="matrix(0.05,0,0,0.05,0,0)" xlink:href="#aw"/><use transform="matrix(0.05,0,0,0.05,5,0)" xlink:href="#ai"/><use transform="matrix(0.05,0,0,0.05,15.950000000000001,0)" xlink:href="#aD"/><use transform="matrix(0.05,0,0,0.05,26.900000000000002,0)" xlink:href="#ai"/></g><g id="P"><use transform="matrix(0.05,0,0,0.05,0,0)" xlink:href="#aC"/><use transform="matrix(0.05,0,0,0.05,10,0)" xlink:href="#ai"/><use transform="matrix(0.05,0,0,0.05,20.950000000000003,0)" xlink:href="#aD"/><use transform="matrix(0.05,0,0,0.05,31.900000000000006,0)" xlink:href="#am"/><use transform="matrix(0.05,0,0,0.05,41.900000000000006,0)" xlink:href="#aj"/><use transform="matrix(0.05,0,0,0.05,52.85,0)" xlink:href="#ai"/><use transform="matrix(0.05,0,0,0.05,63.80000000000001,0)" xlink:href="#ag"/><use transform="matrix(0.05,0,0,0.05,70.80000000000001,0)" xlink:href="#aK"/><use transform="matrix(0.05,0,0,0.05,82.80000000000001,0)" xlink:href="#aG"/><use transform="matrix(0.05,0,0,0.05,93.75000000000001,0)" xlink:href="#ae"/><use transform="matrix(0.05,0,0,0.05,104.7,0)" xlink:href="#ah"/><use transform="matrix(0.05,0,0,0.05,109.7,0)" xlink:href="#ao"/><use transform="matrix(0.05,0,0,0.05,120.65000000000003,0)" xlink:href="#ak"/><use transform="matrix(0.05,0,0,0.05,130.65000000000003,0)" xlink:href="#aE"/><use transform="matrix(0.05,0,0,0.05,143.60000000000002,0)" xlink:href="#aF"/><use transform="matrix(0.05,0,0,0.05,154.55,0)" xlink:href="#aG"/><use transform="matrix(0.05,0,0,0.05,165.5,0)" xlink:href="#ae"/><use transform="matrix(0.05,0,0,0.05,176.45,0)" xlink:href="#ak"/><use transform="matrix(0.05,0,0,0.05,186.45,0)" xlink:href="#ah"/></g><g id="Q"><use transform="matrix(0.05,0,0,0.05,0,0)" xlink:href="#aN"/><use transform="matrix(0.05,0,0,0.05,10.950000000000001,0)" xlink:href="#ai"/><use transform="matrix(0.05,0,0,0.05,21.900000000000002,0)" xlink:href="#aI"/><use transform="matrix(0.05,0,0,0.05,31.900000000000002,0)" xlink:href="#aT"/><use transform="matrix(0.05,0,0,0.05,41.900000000000006,0)" xlink:href="#ak"/><use transform="matrix(0.05,0,0,0.05,51.900000000000006,0)" xlink:href="#aP"/><use transform="matrix(0.05,0,0,0.05,61.900000000000006,0)" xlink:href="#aH"/><use transform="matrix(0.05,0,0,0.05,71.5,0)" xlink:href="#ak"/><use transform="matrix(0.05,0,0,0.05,81.5,0)" xlink:href="#am"/><use transform="matrix(0.05,0,0,0.05,91.5,0)" xlink:href="#an"/><use transform="matrix(0.05,0,0,0.05,107.5,0)" xlink:href="#aq"/><use transform="matrix(0.05,0,0,0.05,112.5,0)" xlink:href="#aj"/></g><path fill="#333" d="M25-224v-37h50v37H25zM75 22c2 45-34 59-81 51V38c22 5 31-5 31-27v-201h50V22" id="aV"/><g id="R"><use transform="matrix(0.05,0,0,0.05,0,0)" xlink:href="#aV"/><use transform="matrix(0.05,0,0,0.05,5,0)" xlink:href="#ak"/><use transform="matrix(0.05,0,0,0.05,15,0)" xlink:href="#ag"/><use transform="matrix(0.05,0,0,0.05,22,0)" xlink:href="#ad"/><use transform="matrix(0.05,0,0,0.05,32,0)" xlink:href="#ak"/><use transform="matrix(0.05,0,0,0.05,42,0)" xlink:href="#aP"/><use transform="matrix(0.05,0,0,0.05,52,0)" xlink:href="#av"/><use transform="matrix(0.05,0,0,0.05,64.95,0)" xlink:href="#ae"/><use transform="matrix(0.05,0,0,0.05,75.9,0)" xlink:href="#an"/></g><g id="S"><use transform="matrix(0.05,0,0,0.05,0,0)" xlink:href="#ao"/><use transform="matrix(0.05,0,0,0.05,10.950000000000001,0)" xlink:href="#ai"/><use transform="matrix(0.05,0,0,0.05,21.900000000000002,0)" xlink:href="#ad"/><use transform="matrix(0.05,0,0,0.05,31.900000000000002,0)" xlink:href="#ah"/><use transform="matrix(0.05,0,0,0.05,36.900000000000006,0)" xlink:href="#au"/><use transform="matrix(0.05,0,0,0.05,42.85000000000001,0)" xlink:href="#ah"/><use transform="matrix(0.05,0,0,0.05,47.85000000000001,0)" xlink:href="#ai"/><use transform="matrix(0.05,0,0,0.05,58.80000000000001,0)" xlink:href="#al"/></g><path fill="#999" d="M24 0v-248h195v40H76v63h132v40H76v65h150V0H24" id="aW"/><path fill="#999" d="M240-174c0 40-23 61-54 70L253 0h-59l-57-94H76V0H24v-248c93 4 217-23 216 74zM76-134c48-2 112 12 112-38 0-48-66-32-112-35v73" id="aX"/><path fill="#999" d="M24-248c120-7 223 5 221 122C244-46 201 0 124 0H24v-248zM76-40c74 7 117-18 117-86 0-67-45-88-117-82v168" id="aY"/><g id="T"><use transform="matrix(0.09876543209876544,0,0,0.09876543209876544,0,0)" xlink:href="#aW"/><use transform="matrix(0.09876543209876544,0,0,0.09876543209876544,23.703703703703706,0)" xlink:href="#aX"/><use transform="matrix(0.09876543209876544,0,0,0.09876543209876544,49.283950617283956,0)" xlink:href="#aY"/></g><g id="U"><use transform="matrix(0.09876543209876544,0,0,0.09876543209876544,0,0)" xlink:href="#aY"/><use transform="matrix(0.09876543209876544,0,0,0.09876543209876544,25.58024691358025,0)" xlink:href="#aW"/></g><path fill="#999" d="M186 0v-106H76V0H24v-248h52v99h110v-99h50V0h-50" id="aZ"/><path fill="#999" d="M110-269v-5l44-45h46v8l-60 42h-30zm30 18c80 0 125 45 125 126S219 4 139 4C58 4 15-44 15-125s44-126 125-126zm-1 214c52 0 73-35 73-88 0-50-21-86-72-86-52 0-73 35-73 86s22 88 72 88" id="ba"/><path fill="#999" d="M140-251c80 0 125 45 125 126 0 70-33 111-92 124 6 28 34 38 68 31l-1 36C177 83 129 55 120 2 51-6 15-50 15-125c0-81 44-126 125-126zm-1 214c52 0 73-35 73-88 0-50-21-86-72-86-52 0-73 35-73 86s22 88 72 88" id="bb"/><path fill="#999" d="M238-95c0 69-44 99-111 99C63 4 22-25 22-93v-155h51v151c-1 38 19 59 55 60 90 1 49-130 58-211h52v153" id="bc"/><path fill="#999" d="M24 0v-248h52V0H24" id="bd"/><g id="V"><use transform="matrix(0.09876543209876544,0,0,0.09876543209876544,0,0)" xlink:href="#aZ"/><use transform="matrix(0.09876543209876544,0,0,0.09876543209876544,25.58024691358025,0)" xlink:href="#ba"/><use transform="matrix(0.09876543209876544,0,0,0.09876543209876544,53.23456790123457,0)" xlink:href="#bb"/><use transform="matrix(0.09876543209876544,0,0,0.09876543209876544,80.88888888888889,0)" xlink:href="#bc"/><use transform="matrix(0.09876543209876544,0,0,0.09876543209876544,106.46913580246914,0)" xlink:href="#aW"/><use transform="matrix(0.09876543209876544,0,0,0.09876543209876544,130.17283950617283,0)" xlink:href="#bd"/></g><path fill="#999" d="M205 0l-28-72H64L36 0H1l101-248h38L239 0h-34zm-38-99l-47-123c-12 45-31 82-46 123h93" id="be"/><path fill="#999" d="M117-194c89-4 53 116 60 194h-32v-121c0-31-8-49-39-48C34-167 62-67 57 0H25l-1-190h30c1 10-1 24 2 32 11-22 29-35 61-36" id="bf"/><path fill="#999" d="M85-194c31 0 48 13 60 33l-1-100h32l1 261h-30c-2-10 0-23-3-31C134-8 116 4 85 4 32 4 16-35 15-94c0-66 23-100 70-100zm9 24c-40 0-46 34-46 75 0 40 6 74 45 74 42 0 51-32 51-76 0-42-9-74-50-73" id="bg"/><path fill="#999" d="M114-163C36-179 61-72 57 0H25l-1-190h30c1 12-1 29 2 39 6-27 23-49 58-41v29" id="bh"/><path fill="#999" d="M100-194c63 0 86 42 84 106H49c0 40 14 67 53 68 26 1 43-12 49-29l28 8c-11 28-37 45-77 45C44 4 14-33 15-96c1-61 26-98 85-98zm52 81c6-60-76-77-97-28-3 7-6 17-6 28h103" id="bi"/><path fill="#999" d="M9 0v-24l116-142H16v-24h144v24L44-24h123V0H9" id="bj"/><path fill="#999" d="M141-36C126-15 110 5 73 4 37 3 15-17 15-53c-1-64 63-63 125-63 3-35-9-54-41-54-24 1-41 7-42 31l-33-3c5-37 33-52 76-52 45 0 72 20 72 64v82c-1 20 7 32 28 27v20c-31 9-61-2-59-35zM48-53c0 20 12 33 32 33 41-3 63-29 60-74-43 2-92-5-92 41" id="bk"/><g id="W"><use transform="matrix(0.06172839506172778,0,0,0.06172839506172778,0,0)" xlink:href="#be"/><use transform="matrix(0.06172839506172778,0,0,0.06172839506172778,14.814814814814667,0)" xlink:href="#bf"/><use transform="matrix(0.06172839506172778,0,0,0.06172839506172778,27.160493827160224,0)" xlink:href="#bg"/><use transform="matrix(0.06172839506172778,0,0,0.06172839506172778,39.50617283950578,0)" xlink:href="#bh"/><use transform="matrix(0.06172839506172778,0,0,0.06172839506172778,46.851851851851386,0)" xlink:href="#bi"/><use transform="matrix(0.06172839506172778,0,0,0.06172839506172778,59.19753086419694,0)" xlink:href="#bj"/><use transform="matrix(0.06172839506172778,0,0,0.06172839506172778,70.30864197530795,0)" xlink:href="#bk"/></g><path fill="#999" d="M185-189c-5-48-123-54-124 2 14 75 158 14 163 119 3 78-121 87-175 55-17-10-28-26-33-46l33-7c5 56 141 63 141-1 0-78-155-14-162-118-5-82 145-84 179-34 5 7 8 16 11 25" id="bl"/><path fill="#999" d="M24-231v-30h32v30H24zM24 0v-190h32V0H24" id="bm"/><path fill="#999" d="M24 0v-261h32V0H24" id="bn"/><path fill="#999" d="M108 0H70L1-190h34L89-25l56-165h34" id="bo"/><g id="X"><use transform="matrix(0.06172839506172778,0,0,0.06172839506172778,0,0)" xlink:href="#bl"/><use transform="matrix(0.06172839506172778,0,0,0.06172839506172778,14.814814814814667,0)" xlink:href="#bm"/><use transform="matrix(0.06172839506172778,0,0,0.06172839506172778,19.691358024691162,0)" xlink:href="#bn"/><use transform="matrix(0.06172839506172778,0,0,0.06172839506172778,24.567901234567657,0)" xlink:href="#bo"/><use transform="matrix(0.06172839506172778,0,0,0.06172839506172778,35.67901234567866,0)" xlink:href="#bk"/></g><path fill="#999" d="M32 76v-337h29V76H32" id="bp"/><use transform="matrix(0.06172839506172778,0,0,0.06172839506172778,0,0)" xlink:href="#bp" id="Y"/><path fill="#999" d="M115-194c55 1 70 41 70 98S169 2 115 4C84 4 66-9 55-30l1 105H24l-1-265h31l2 30c10-21 28-34 59-34zm-8 174c40 0 45-34 45-75s-6-73-45-74c-42 0-51 32-51 76 0 43 10 73 51 73" id="bq"/><g id="Z"><use transform="matrix(0.06172839506172778,0,0,0.06172839506172778,0,0)" xlink:href="#be"/><use transform="matrix(0.06172839506172778,0,0,0.06172839506172778,14.814814814814667,0)" xlink:href="#bq"/><use transform="matrix(0.06172839506172778,0,0,0.06172839506172778,27.160493827160224,0)" xlink:href="#bh"/><use transform="matrix(0.06172839506172778,0,0,0.06172839506172778,34.50617283950583,0)" xlink:href="#bm"/><use transform="matrix(0.06172839506172778,0,0,0.06172839506172778,39.382716049382324,0)" xlink:href="#bn"/></g><path fill="#999" d="M101-251c82-7 93 87 43 132L82-64C71-53 59-42 53-27h129V0H18c2-99 128-94 128-182 0-28-16-43-45-43s-46 15-49 41l-32-3c6-41 34-60 81-64" id="br"/><path fill="#999" d="M155-56V0h-30v-56H8v-25l114-167h33v167h35v25h-35zm-30-156c-27 46-58 90-88 131h88v-131" id="bs"/><path fill="#999" d="M68-38c1 34 0 65-14 84H32c9-13 17-26 17-46H33v-38h35" id="bt"/><g id="aa"><use transform="matrix(0.06172839506172778,0,0,0.06172839506172778,0,0)" xlink:href="#br"/><use transform="matrix(0.06172839506172778,0,0,0.06172839506172778,12.345679012345556,0)" xlink:href="#bs"/><use transform="matrix(0.06172839506172778,0,0,0.06172839506172778,24.691358024691112,0)" xlink:href="#bt"/></g><path fill="#999" d="M101-251c68 0 85 55 85 127S166 4 100 4C33 4 14-52 14-124c0-73 17-127 87-127zm-1 229c47 0 54-49 54-102s-4-102-53-102c-51 0-55 48-55 102 0 53 5 102 54 102" id="bu"/><path fill="#999" d="M27 0v-27h64v-190l-56 39v-29l58-41h29v221h61V0H27" id="bv"/><path fill="#999" d="M134-131c28 9 52 24 51 62-1 50-34 73-85 73S17-19 16-69c0-36 21-54 49-61-75-25-45-126 34-121 46 3 78 18 79 63 0 33-17 51-44 57zm-34-11c31 1 46-15 46-44 0-28-17-43-47-42-29 0-46 13-45 42 1 28 16 44 46 44zm1 122c35 0 51-18 51-52 0-30-18-46-53-46-33 0-51 17-51 47 0 34 19 51 53 51" id="bw"/><g id="ab"><use transform="matrix(0.06172839506172778,0,0,0.06172839506172778,0,0)" xlink:href="#br"/><use transform="matrix(0.06172839506172778,0,0,0.06172839506172778,12.345679012345556,0)" xlink:href="#bu"/><use transform="matrix(0.06172839506172778,0,0,0.06172839506172778,24.691358024691112,0)" xlink:href="#bv"/><use transform="matrix(0.06172839506172778,0,0,0.06172839506172778,37.03703703703667,0)" xlink:href="#bw"/></g></defs></g></svg>